<?xml version="1.0" encoding="UTF-8" standalone="no"?>
<svg xmlns="http://www.w3.org/2000/svg" contentScriptType="application/ecmascript" contentStyleType="text/css"
     height="515px" preserveAspectRatio="none" style="width:496px;height:515px;" version="1.1" viewBox="0 0 496 515"
     width="496px" zoomAndPan="magnify"><defs><filter height="300%" id="fr3icixkykkkj" width="300%" x="-1" y="-1"><feGaussianBlur result="blurOut" stdDeviation="2.0"/><feColorMatrix in="blurOut" result="blurOut2" type="matrix" values="0 0 0 0 0 0 0 0 0 0 0 0 0 0 0 0 0 0 .4 0"/><feOffset dx="4.0" dy="4.0" in="blurOut2" result="blurOut3"/><feBlend in="SourceGraphic" in2="blurOut3" mode="normal"/></filter></defs><g><!--MD5=[052dca7757a5a3b910fcce1f536fa506]
class InputValidator--><rect codeLine="10" fill="#FEFECE" filter="url(#fr3icixkykkkj)" height="99.2188" id="InputValidator" style="stroke:#A80036;stroke-width:1.5;" width="301" x="91" y="7"/><ellipse cx="193.25" cy="23" fill="#ADD1B2" rx="11" ry="11" style="stroke:#A80036;stroke-width:1.0;"/><path d="M196.2188,28.6406 Q195.6406,28.9375 195,29.0781 Q194.3594,29.2344 193.6563,29.2344 Q191.1563,29.2344 189.8281,27.5938 Q188.5156,25.9375 188.5156,22.8125 Q188.5156,19.6875 189.8281,18.0313 Q191.1563,16.375 193.6563,16.375 Q194.3594,16.375 195,16.5313 Q195.6563,16.6875 196.2188,16.9844 L196.2188,19.7031 Q195.5938,19.125 195,18.8594 Q194.4063,18.5781 193.7813,18.5781 Q192.4375,18.5781 191.75,19.6563 Q191.0625,20.7188 191.0625,22.8125 Q191.0625,24.9063 191.75,25.9844 Q192.4375,27.0469 193.7813,27.0469 Q194.4063,27.0469 195,26.7813 Q195.5938,26.5 196.2188,25.9219 L196.2188,28.6406 Z " fill="#000000"/><text fill="#000000" font-family="sans-serif" font-size="12" lengthAdjust="spacing" textLength="88" x="213.75" y="27.1543">InputValidator</text><line style="stroke:#A80036;stroke-width:1.5;" x1="92" x2="391" y1="39" y2="39"/><ellipse cx="102" cy="50" rx="3" ry="3" style="stroke:#038048;stroke-width:1.0;fill:none;"/><text fill="#000000" font-family="sans-serif" font-size="11" lengthAdjust="spacing" textLength="95" x="111" y="53.2104">input_string : str</text><line style="stroke:#A80036;stroke-width:1.5;" x1="92" x2="391" y1="59.8047" y2="59.8047"/><ellipse cx="102" cy="70.8047" fill="#84BE84" rx="3" ry="3" style="stroke:#038048;stroke-width:1.0;"/><text fill="#000000" font-family="sans-serif" font-size="11" lengthAdjust="spacing" textLength="198" x="111" y="74.0151">check_for_input_validation_errors()</text><rect fill="#F24D5C" height="6" style="stroke:#C82930;stroke-width:1.0;" width="6" x="99" y="80.6094"/><text fill="#000000" font-family="sans-serif" font-size="11" lengthAdjust="spacing" textLength="209" x="111" y="86.8198">_raise_value_error_on_empty_input()</text><rect fill="#F24D5C" height="6" style="stroke:#C82930;stroke-width:1.0;" width="6" x="99" y="93.4141"/><text fill="#000000" font-family="sans-serif" font-size="11" lengthAdjust="spacing" textLength="275" x="111" y="99.6245">_raise_type_error_on_input_not_being_a_string()</text><!--MD5=[3de4601ef7aa554a478c215c5e61fef8]
class PasswordValidator--><rect codeLine="17" fill="#FEFECE" filter="url(#fr3icixkykkkj)" height="176.0469" id="PasswordValidator" style="stroke:#A80036;stroke-width:1.5;" width="242" x="120.5" y="166"/><ellipse cx="179.25" cy="182" fill="#A9DCDF" rx="11" ry="11" style="stroke:#A80036;stroke-width:1.0;"/><path d="M179.3594,177.3438 L178.2031,182.4219 L180.5313,182.4219 L179.3594,177.3438 Z M177.875,175.1094 L180.8594,175.1094 L184.2188,187.5 L181.7656,187.5 L181,184.4375 L177.7188,184.4375 L176.9688,187.5 L174.5313,187.5 L177.875,175.1094 Z " fill="#000000"/><text fill="#000000" font-family="sans-serif" font-size="12" font-style="italic" lengthAdjust="spacing" textLength="116" x="199.75" y="186.1543">PasswordValidator</text><line style="stroke:#A80036;stroke-width:1.5;" x1="121.5" x2="361.5" y1="198" y2="198"/><ellipse cx="131.5" cy="209" rx="3" ry="3" style="stroke:#038048;stroke-width:1.0;fill:none;"/><text fill="#000000" font-family="sans-serif" font-size="11" lengthAdjust="spacing" textLength="84" x="140.5" y="212.2104">password : str</text><rect fill="none" height="6" style="stroke:#C82930;stroke-width:1.0;" width="6" x="128.5" y="218.8047"/><text fill="#000000" font-family="sans-serif" font-size="11" font-style="italic" lengthAdjust="spacing" textLength="88" x="140.5" y="225.0151">min_length : int</text><rect fill="none" height="6" style="stroke:#C82930;stroke-width:1.0;" width="6" x="128.5" y="231.6094"/><text fill="#000000" font-family="sans-serif" font-size="11" font-style="italic" lengthAdjust="spacing" textLength="90" x="140.5" y="237.8198">min_letters : int</text><rect fill="none" height="6" style="stroke:#C82930;stroke-width:1.0;" width="6" x="128.5" y="244.4141"/><text fill="#000000" font-family="sans-serif" font-size="11" font-style="italic" lengthAdjust="spacing" textLength="104" x="140.5" y="250.6245">min_numbers : int</text><rect fill="none" height="6" style="stroke:#C82930;stroke-width:1.0;" width="6" x="128.5" y="257.2188"/><text fill="#000000" font-family="sans-serif" font-size="11" font-style="italic" lengthAdjust="spacing" textLength="132" x="140.5" y="263.4292">condition_methods: list</text><line style="stroke:#A80036;stroke-width:1.5;" x1="121.5" x2="361.5" y1="270.0234" y2="270.0234"/><ellipse cx="131.5" cy="281.0234" fill="#84BE84" rx="3" ry="3" style="stroke:#038048;stroke-width:1.0;"/><text fill="#000000" font-family="sans-serif" font-size="11" lengthAdjust="spacing" text-decoration="underline" textLength="160" x="140.5" y="284.2339">is_valid(class_: class) : bool</text><ellipse cx="131.5" cy="293.8281" fill="#84BE84" rx="3" ry="3" style="stroke:#038048;stroke-width:1.0;"/><text fill="#000000" font-family="sans-serif" font-size="11" lengthAdjust="spacing" text-decoration="underline" textLength="216" x="140.5" y="297.0386">print_unmet_conditions(reasons : list)</text><rect fill="#F24D5C" height="6" style="stroke:#C82930;stroke-width:1.0;" width="6" x="128.5" y="303.6328"/><text fill="#000000" font-family="sans-serif" font-size="11" lengthAdjust="spacing" textLength="148" x="140.5" y="309.8433">_has_valid_length() : tuple</text><rect fill="#F24D5C" height="6" style="stroke:#C82930;stroke-width:1.0;" width="6" x="128.5" y="316.4375"/><text fill="#000000" font-family="sans-serif" font-size="11" lengthAdjust="spacing" textLength="166" x="140.5" y="322.6479">_has_enough_letters() : tuple</text><rect fill="#F24D5C" height="6" style="stroke:#C82930;stroke-width:1.0;" width="6" x="128.5" y="329.2422"/><text fill="#000000" font-family="sans-serif" font-size="11" lengthAdjust="spacing" textLength="180" x="140.5" y="335.4526">_has_enough_numbers() : tuple</text><!--MD5=[5cb8749fe647001edcfc78a85df0db24]
class PasswordValidatorAdminUser--><rect codeLine="30" fill="#FEFECE" filter="url(#fr3icixkykkkj)" height="99.2188" id="PasswordValidatorAdminUser" style="stroke:#A80036;stroke-width:1.5;" width="215" x="7" y="402"/><ellipse cx="22" cy="418" fill="#ADD1B2" rx="11" ry="11" style="stroke:#A80036;stroke-width:1.0;"/><path d="M24.9688,423.6406 Q24.3906,423.9375 23.75,424.0781 Q23.1094,424.2344 22.4063,424.2344 Q19.9063,424.2344 18.5781,422.5938 Q17.2656,420.9375 17.2656,417.8125 Q17.2656,414.6875 18.5781,413.0313 Q19.9063,411.375 22.4063,411.375 Q23.1094,411.375 23.75,411.5313 Q24.4063,411.6875 24.9688,411.9844 L24.9688,414.7031 Q24.3438,414.125 23.75,413.8594 Q23.1563,413.5781 22.5313,413.5781 Q21.1875,413.5781 20.5,414.6563 Q19.8125,415.7188 19.8125,417.8125 Q19.8125,419.9063 20.5,420.9844 Q21.1875,422.0469 22.5313,422.0469 Q23.1563,422.0469 23.75,421.7813 Q24.3438,421.5 24.9688,420.9219 L24.9688,423.6406 Z " fill="#000000"/><text fill="#000000" font-family="sans-serif" font-size="12" lengthAdjust="spacing" textLength="183" x="36" y="422.1543">PasswordValidatorAdminUser</text><line style="stroke:#A80036;stroke-width:1.5;" x1="8" x2="221" y1="434" y2="434"/><rect fill="none" height="6" style="stroke:#C82930;stroke-width:1.0;" width="6" x="15" y="442"/><text fill="#000000" font-family="sans-serif" font-size="11" lengthAdjust="spacing" textLength="88" x="27" y="448.2104">min_length : int</text><rect fill="none" height="6" style="stroke:#C82930;stroke-width:1.0;" width="6" x="15" y="454.8047"/><text fill="#000000" font-family="sans-serif" font-size="11" lengthAdjust="spacing" textLength="90" x="27" y="461.0151">min_letters : int</text><rect fill="none" height="6" style="stroke:#C82930;stroke-width:1.0;" width="6" x="15" y="467.6094"/><text fill="#000000" font-family="sans-serif" font-size="11" lengthAdjust="spacing" textLength="104" x="27" y="473.8198">min_numbers : int</text><rect fill="none" height="6" style="stroke:#C82930;stroke-width:1.0;" width="6" x="15" y="480.4141"/><text fill="#000000" font-family="sans-serif" font-size="11" lengthAdjust="spacing" textLength="132" x="27" y="486.6245">condition_methods: list</text><line style="stroke:#A80036;stroke-width:1.5;" x1="8" x2="221" y1="493.2188" y2="493.2188"/><!--MD5=[78dbf0a1a2133479d16b6bb84a25ed66]
class PasswordValidatorRegularUser--><rect codeLine="37" fill="#FEFECE" filter="url(#fr3icixkykkkj)" height="99.2188" id="PasswordValidatorRegularUser" style="stroke:#A80036;stroke-width:1.5;" width="225" x="257" y="402"/><ellipse cx="272" cy="418" fill="#ADD1B2" rx="11" ry="11" style="stroke:#A80036;stroke-width:1.0;"/><path d="M274.9688,423.6406 Q274.3906,423.9375 273.75,424.0781 Q273.1094,424.2344 272.4063,424.2344 Q269.9063,424.2344 268.5781,422.5938 Q267.2656,420.9375 267.2656,417.8125 Q267.2656,414.6875 268.5781,413.0313 Q269.9063,411.375 272.4063,411.375 Q273.1094,411.375 273.75,411.5313 Q274.4063,411.6875 274.9688,411.9844 L274.9688,414.7031 Q274.3438,414.125 273.75,413.8594 Q273.1563,413.5781 272.5313,413.5781 Q271.1875,413.5781 270.5,414.6563 Q269.8125,415.7188 269.8125,417.8125 Q269.8125,419.9063 270.5,420.9844 Q271.1875,422.0469 272.5313,422.0469 Q273.1563,422.0469 273.75,421.7813 Q274.3438,421.5 274.9688,420.9219 L274.9688,423.6406 Z " fill="#000000"/><text fill="#000000" font-family="sans-serif" font-size="12" lengthAdjust="spacing" textLength="193" x="286" y="422.1543">PasswordValidatorRegularUser</text><line style="stroke:#A80036;stroke-width:1.5;" x1="258" x2="481" y1="434" y2="434"/><rect fill="none" height="6" style="stroke:#C82930;stroke-width:1.0;" width="6" x="265" y="442"/><text fill="#000000" font-family="sans-serif" font-size="11" lengthAdjust="spacing" textLength="88" x="277" y="448.2104">min_length : int</text><rect fill="none" height="6" style="stroke:#C82930;stroke-width:1.0;" width="6" x="265" y="454.8047"/><text fill="#000000" font-family="sans-serif" font-size="11" lengthAdjust="spacing" textLength="90" x="277" y="461.0151">min_letters : int</text><rect fill="none" height="6" style="stroke:#C82930;stroke-width:1.0;" width="6" x="265" y="467.6094"/><text fill="#000000" font-family="sans-serif" font-size="11" lengthAdjust="spacing" textLength="104" x="277" y="473.8198">min_numbers : int</text><rect fill="none" height="6" style="stroke:#C82930;stroke-width:1.0;" width="6" x="265" y="480.4141"/><text fill="#000000" font-family="sans-serif" font-size="11" lengthAdjust="spacing" textLength="132" x="277" y="486.6245">condition_methods: list</text><line style="stroke:#A80036;stroke-width:1.5;" x1="258" x2="481" y1="493.2188" y2="493.2188"/><!--MD5=[456d9f2a6370958fbfb4c0c67a3c2e1f]
reverse link InputValidator to PasswordValidator--><path codeLine="6" d="M241.5,111.2681 C241.5,128.2107 241.5,147.3241 241.5,165.9262 " fill="none" id="InputValidator-backto-PasswordValidator" style="stroke:#A80036;stroke-width:1.0;stroke-dasharray:7.0,7.0;"/><polygon fill="#A80036" points="241.5,106.0827,237.5,115.0827,241.5,111.0827,245.5,115.0827,241.5,106.0827" style="stroke:#A80036;stroke-width:1.0;"/><!--MD5=[a542c0fd4f3b8dfd0fe6faec260eb293]
reverse link PasswordValidator to PasswordValidatorAdminUser--><path codeLine="7" d="M174.0311,358.9221 C164.4339,373.8469 154.958,388.583 146.485,401.7595 " fill="none" id="PasswordValidator-backto-PasswordValidatorAdminUser" style="stroke:#A80036;stroke-width:1.0;"/><polygon fill="none" points="168.1662,355.1004,184.8713,342.0643,179.9417,362.6726,168.1662,355.1004" style="stroke:#A80036;stroke-width:1.0;"/><!--MD5=[d2f71b0266bf694c77d1d16456118b3a]
reverse link PasswordValidator to PasswordValidatorRegularUser--><path codeLine="8" d="M309.5001,358.9221 C319.1729,373.8469 328.7234,388.583 337.2631,401.7595 " fill="none" id="PasswordValidator-backto-PasswordValidatorRegularUser" style="stroke:#A80036;stroke-width:1.0;"/><polygon fill="none" points="303.5778,362.6548,298.5746,342.0643,315.3262,355.0406,303.5778,362.6548" style="stroke:#A80036;stroke-width:1.0;"/><!--MD5=[de1ccfc75c21069559af9e3459ecd9ec]
@startuml
class InputValidator
abstract class PasswordValidator
class PasswordValidatorAdminUser
class PasswordValidatorRegularUser

InputValidator <.. PasswordValidator
PasswordValidator <|- - PasswordValidatorAdminUser
PasswordValidator <|- - PasswordValidatorRegularUser

class InputValidator {
   +input_string : str
   +check_for_input_validation_errors()
   -_raise_value_error_on_empty_input()
   -_raise_type_error_on_input_not_being_a_string()
}

abstract class PasswordValidator {
   +password : str
   - {abstract} min_length : int
   - {abstract} min_letters : int
   - {abstract} min_numbers : int
   - {abstract} condition_methods: list
   + {static} is_valid(class_: class) : bool
   + {static} print_unmet_conditions(reasons : list)
   -_has_valid_length() : tuple
   -_has_enough_letters() : tuple
   -_has_enough_numbers() : tuple
}

class PasswordValidatorAdminUser {
   -min_length : int
   -min_letters : int
   -min_numbers : int
   -condition_methods: list
}

class PasswordValidatorRegularUser {
   -min_length : int
   -min_letters : int
   -min_numbers : int
   -condition_methods: list
}
@enduml

PlantUML version 1.2021.4(Sun Apr 04 08:49:39 UTC 2021)
(GPL source distribution)
Java Runtime: OpenJDK Runtime Environment
JVM: OpenJDK 64-Bit Server VM
Default Encoding: UTF-8
Language: en
Country: null
--></g></svg>